PathFileType	4	(X/Y/Z)	Walk7.trc
DataRate	CameraRate	NumFrames	NumMarkers	Units	OrigDataRate	OrigDataStartFrame	OrigNumFrames
200.000000	200.000000	9	61	mm	200.000000	692	852
Frame#	Times		LowerBodyModelVer		LFHD		RFHD		RACR1		RUA1		RCAR		LElbow		RFA1		RASI		LACR1		LLFC		RWRU		LUA1		LTH3		LTB1		LMT1		RTH2		LMT5		LTB3		LTB4		LToe		LTB2		LTH2		LTH4		CLAV		RLFC		STRN		LLMAL		RBHD		LTH1		RTH3		LFA1		RBack		C7		LWRU		LPSI		RMT5		RMT1		LBHD		LCAR		RTH4		RCAL		RTH1		RTB2		RToe		RLMAL		LASI		RPSI		SACR		RTB3		LWRR		RTB1		RTB4		RMMAL		LMMAL		RElbowM		RElbow		T10		RWRR		LCAL		LElbowM
			X1	Y1	Z1	X2	Y2	Z2	X3	Y3	Z3	X4	Y4	Z4	X5	Y5	Z5	X6	Y6	Z6	X7	Y7	Z7	X8	Y8	Z8	X9	Y9	Z9	X10	Y10	Z10	X11	Y11	Z11	X12	Y12	Z12	X13	Y13	Z13	X14	Y14	Z14	X15	Y15	Z15	X16	Y16	Z16	X17	Y17	Z17	X18	Y18	Z18	X19	Y19	Z19	X20	Y20	Z20	X21	Y21	Z21	X22	Y22	Z22	X23	Y23	Z23	X24	Y24	Z24	X25	Y25	Z25	X26	Y26	Z26	X27	Y27	Z27	X28	Y28	Z28	X29	Y29	Z29	X30	Y30	Z30	X31	Y31	Z31	X32	Y32	Z32	X33	Y33	Z33	X34	Y34	Z34	X35	Y35	Z35	X36	Y36	Z36	X37	Y37	Z37	X38	Y38	Z38	X39	Y39	Z39	X40	Y40	Z40	X41	Y41	Z41	X42	Y42	Z42	X43	Y43	Z43	X44	Y44	Z44	X45	Y45	Z45	X46	Y46	Z46	X47	Y47	Z47	X48	Y48	Z48	X49	Y49	Z49	X50	Y50	Z50	X51	Y51	Z51	X52	Y52	Z52	X53	Y53	Z53	X54	Y54	Z54	X55	Y55	Z55	X56	Y56	Z56	X57	Y57	Z57	X58	Y58	Z58	X59	Y59	Z59	X60	Y60	Z60	X61	Y61	Z61

692	3.46	9	2014	4	325.34	1575	14.307	329.58	1569.2	111.99	187.88	1365.7	230.12	160.71	1218.2	311.35	211.54	761.76	342.31	129.63	1097	-259.22	190.58	924.11	342.37	296.05	965.34	191.74	191.47	1381.5	-129.21	211.18	494.55	-188.91	175.08	816.24	365.43	177.78	1240.2	-216.44	240.04	566.3	-197.24	170.77	332.54	-112.85	-8.7126	61.257	-106.11	280.61	640.31	189.02	-47.502	79.674	-179.38	36.369	224.68	-108.32	99.034	282.26	-109.19	18.362	40.231	-121.79	84.48	301.06	-166.19	291.06	657.96	-184.36	236.94	653.04	-211.67	265.53	1347.5	50.908	222.89	460.76	179.47	330.53	1237.1	63.208	-77.004	198.65	-149.05	159.86	1578.9	127.73	236.78	737.1	-226.39	221.07	553.91	195.17	209.99	990.65	-291.1	54.215	1303.7	150.12	106.05	1417.1	66.413	214.73	873.65	-327.86	36.1	986.83	-64.392	328.46	27.997	169.82	339.46	34.026	77.546	172.01	1573.5	-7.7645	262.71	836.09	-327.96	225.29	639.17	212.17	150.91	26.877	117.54	241.61	719.9	228.94	250.58	272.22	160.66	383.78	32.772	84.479	205.83	65.464	160.58	300.23	978.72	-144.83	34.427	981.48	70.233	35.264	984.15	2.9204	251.74	181.9	102.42	263.49	881.28	-271.18	275.03	351.6	94.393	257.44	266.43	99.335	221.58	71.756	74.196	-45.237	179.94	-72.642	84.4	1041.7	258.03	125.1	1051.8	340.31	57.059	1087.9	23.956	210.53	821.74	299.97	-126.25	204.2	-89.912	126.39	1053	-158.47
693	3.465	9	2014	4	330.17	1575.3	14.81	334.47	1569.5	112.49	193.06	1366	230.59	166.21	1218.5	311.99	218.08	762.4	343.41	133.16	1097.3	-258.75	196.63	924.67	343.32	300.29	964.68	191.72	196.03	1381.6	-128.91	219.25	495.66	-189.04	181.52	816.79	366.51	181.96	1240.2	-215.92	247.53	567.43	-197.54	180.4	333.35	-113.6	3.7813	61.548	-108.45	283.27	640.03	188.98	-35.62	80.604	-181.35	46.728	224.78	-109.27	109.23	282.71	-110.13	31.087	40.733	-124.59	93.86	301.96	-166.65	297.61	659.65	-184.56	243.54	654.19	-211.87	270.28	1347.6	51.301	224.42	460.71	179.64	335.24	1237	63.503	-66.924	198.34	-149.19	164.74	1579.1	128.33	242.44	738.32	-226.42	223.34	553.94	195.41	212.31	990.24	-291.14	59.079	1304.1	150.93	110.9	1417.5	66.897	215.64	873.28	-328.02	39.964	987.24	-63.751	328.43	27.998	169.83	339.46	33.992	77.534	176.81	1573.8	-7.1756	263.32	835.39	-328.55	228.1	639.23	212.49	150.91	26.869	117.5	244.9	719.89	229.05	251.26	272.12	160.74	383.89	32.768	84.544	205.84	65.483	160.54	303.32	977.4	-145.08	38.75	982.15	70.97	39.357	984.69	3.6091	252.14	181.83	102.43	264.85	880.4	-271.68	275.93	351.45	94.513	258.01	266.32	99.436	221.61	71.741	74.141	-34.55	179.2	-73.122	89.789	1041.8	259.2	130.79	1052.2	341.33	61.462	1088.5	24.575	216.69	822.35	301.01	-116.27	202.4	-89.676	130.03	1053.4	-158.46
694	3.47	9	2014	4	335	1575.6	15.267	339.36	1569.8	112.95	198.26	1366.2	231.01	171.73	1218.8	312.59	224.63	763.02	344.53	136.68	1097.6	-258.31	202.7	925.2	344.25	304.45	963.95	191.72	200.64	1381.7	-128.64	227.22	496.75	-189.15	187.96	817.33	367.61	186.17	1240.1	-215.43	254.87	568.58	-197.84	190.06	334.17	-114.31	16.612	61.717	-110.61	285.94	639.73	188.96	-23.324	81.249	-183.18	57.258	224.73	-110.21	119.57	283.07	-111.09	44.194	41.16	-127.13	103.33	302.76	-167.11	304.06	661.33	-184.79	250.04	655.36	-212.08	275.03	1347.8	51.663	225.96	460.64	179.78	339.95	1236.9	63.713	-56.599	197.7	-149.36	169.64	1579.3	128.89	248.05	739.54	-226.46	225.62	553.95	195.64	214.63	989.8	-291.19	63.927	1304.6	151.72	115.74	1417.9	67.331	216.53	872.89	-328.2	43.839	987.64	-63.154	328.41	28	169.83	339.47	33.958	77.517	181.62	1574.2	-6.6299	263.89	834.67	-329.16	230.89	639.26	212.8	150.91	26.861	117.46	248.14	719.83	229.2	251.95	272.02	160.81	384	32.762	84.611	205.84	65.505	160.5	306.48	976.06	-145.28	43.029	982.8	71.645	43.434	985.22	4.2455	252.56	181.76	102.43	266.17	879.49	-272.19	276.86	351.29	94.617	258.62	266.2	99.528	221.65	71.722	74.078	-23.665	178.24	-73.602	95.202	1041.9	260.34	136.51	1052.5	342.32	65.856	1089	25.16	222.83	822.93	302.05	-106.09	200.24	-89.566	133.65	1053.8	-158.44
695	3.475	9	2014	4	339.85	1575.8	15.679	344.26	1570	113.36	203.48	1366.4	231.4	177.26	1219	313.12	231.17	763.63	345.67	140.19	1097.9	-257.89	208.78	925.73	345.16	308.55	963.17	191.74	205.28	1381.7	-128.39	235.1	497.83	-189.23	194.4	817.88	368.72	190.4	1240	-214.98	262.05	569.72	-198.12	199.76	334.98	-115	29.767	61.764	-112.57	288.6	639.4	188.97	-10.634	81.611	-184.87	67.948	224.53	-111.15	130.02	283.33	-112.04	57.665	41.508	-129.4	112.89	303.43	-167.55	310.42	662.98	-185.06	256.45	656.52	-212.3	279.76	1347.9	51.998	227.52	460.57	179.91	344.66	1236.6	63.837	-46.033	196.73	-149.57	174.55	1579.6	129.41	253.61	740.73	-226.53	227.9	553.93	195.85	216.94	989.35	-291.24	68.762	1305.1	152.5	120.57	1418.2	67.721	217.41	872.49	-328.41	47.733	988.05	-62.601	328.38	28.003	169.83	339.49	33.923	77.496	186.44	1574.4	-6.1265	264.45	833.94	-329.79	233.68	639.24	213.12	150.92	26.851	117.41	251.35	719.74	229.37	252.65	271.9	160.86	384.12	32.753	84.682	205.84	65.527	160.44	309.71	974.73	-145.41	47.268	983.43	72.259	47.501	985.74	4.8293	253	181.67	102.45	267.47	878.56	-272.72	277.81	351.13	94.705	259.26	266.08	99.611	221.69	71.699	74.004	-12.584	177.06	-74.078	100.64	1042	261.44	142.25	1052.9	343.27	70.24	1089.5	25.713	228.97	823.49	303.1	-95.704	197.73	-89.575	137.26	1054.2	-158.41
696	3.48	9	2014	4	344.71	1576	16.049	349.17	1570.2	113.73	208.73	1366.7	231.74	182.79	1219.3	313.61	237.71	764.23	346.82	143.7	1098.2	-257.48	214.88	926.23	346.05	312.58	962.33	191.79	209.96	1381.7	-128.16	242.9	498.88	-189.27	200.84	818.42	369.84	194.65	1239.8	-214.56	269.09	570.86	-198.4	209.49	335.77	-115.67	43.233	61.689	-114.33	291.26	639.03	189.01	2.427	81.691	-186.42	78.792	224.17	-112.05	140.56	283.49	-112.97	71.482	41.774	-131.42	122.54	303.96	-167.97	316.69	664.59	-185.37	262.75	657.67	-212.52	284.48	1348	52.307	229.11	460.47	180.01	349.38	1236.3	63.875	-35.229	195.44	-149.8	179.47	1579.8	129.88	259.11	741.89	-226.62	230.19	553.87	196.04	219.25	988.88	-291.31	73.587	1305.6	153.26	125.39	1418.6	68.071	218.27	872.09	-328.62	51.649	988.47	-62.093	328.36	28.007	169.83	339.5	33.888	77.471	191.28	1574.7	-5.6649	264.97	833.2	-330.42	236.45	639.2	213.43	150.93	26.842	117.36	254.52	719.61	229.56	253.38	271.78	160.92	384.24	32.739	84.755	205.84	65.55	160.39	313.03	973.41	-145.47	51.47	984.04	72.814	51.56	986.26	5.3606	253.46	181.58	102.46	268.74	877.62	-273.26	278.79	350.97	94.783	259.94	265.95	99.686	221.74	71.674	73.922	-1.3092	175.67	-74.545	106.1	1042	262.51	148.01	1053.2	344.19	74.616	1090	26.236	235.12	824.03	304.14	-85.116	194.89	-89.689	140.86	1054.5	-158.35
697	3.485	9	2014	4	349.57	1576.2	16.376	354.09	1570.3	114.05	213.99	1366.8	232.05	188.32	1219.4	314.05	244.26	764.81	347.97	147.2	1098.4	-257.09	220.98	926.73	346.92	316.56	961.46	191.88	214.67	1381.7	-127.94	250.64	499.88	-189.29	207.28	818.96	370.97	198.92	1239.7	-214.17	276.01	571.97	-198.65	219.26	336.53	-116.3	56.996	61.492	-115.91	293.91	638.63	189.09	15.834	81.497	-187.81	89.783	223.66	-112.92	151.19	283.54	-113.86	85.626	41.954	-133.18	132.27	304.34	-168.37	322.88	666.14	-185.72	268.94	658.78	-212.74	289.19	1348.1	52.589	230.72	460.37	180.1	354.1	1235.9	63.825	-24.193	193.83	-150.06	184.41	1580.1	130.31	264.56	743.01	-226.74	232.47	553.79	196.21	221.55	988.39	-291.39	78.405	1306.1	153.99	130.21	1418.9	68.386	219.12	871.7	-328.85	55.592	988.9	-61.631	328.33	28.012	169.82	339.52	33.854	77.442	196.12	1574.9	-5.2443	265.46	832.47	-331.06	239.2	639.13	213.73	150.95	26.831	117.29	257.64	719.45	229.79	254.12	271.65	160.96	384.36	32.721	84.832	205.84	65.573	160.33	316.44	972.13	-145.47	55.637	984.63	73.311	55.614	986.77	5.8401	253.93	181.47	102.48	269.99	876.66	-273.81	279.8	350.79	94.853	260.67	265.82	99.757	221.79	71.647	73.833	10.159	174.07	-74.999	111.58	1042.1	263.54	153.79	1053.5	345.07	78.983	1090.5	26.729	241.27	824.54	305.19	-74.312	191.72	-89.895	144.45	1054.7	-158.27
698	3.49	9	2014	4	354.44	1576.3	16.662	359.02	1570.4	114.34	219.27	1367	232.32	193.85	1219.6	314.43	250.79	765.38	349.14	150.68	1098.6	-256.71	227.1	927.21	347.76	320.48	960.56	192.01	219.42	1381.6	-127.73	258.31	500.84	-189.27	213.73	819.5	372.1	203.2	1239.5	-213.81	282.8	573.04	-198.88	229.06	337.25	-116.9	71.046	61.173	-117.31	296.56	638.22	189.2	29.563	81.038	-189.07	100.92	223.01	-113.73	161.87	283.48	-114.69	100.08	42.047	-134.71	142.1	304.55	-168.74	328.98	667.64	-186.11	275.04	659.84	-212.96	293.91	1348.1	52.845	232.36	460.26	180.18	358.82	1235.5	63.687	-12.926	191.91	-150.33	189.35	1580.3	130.69	269.94	744.06	-226.87	234.74	553.69	196.36	223.84	987.91	-291.47	83.22	1306.5	154.7	135.02	1419.2	68.673	219.95	871.3	-329.08	59.561	989.34	-61.215	328.31	28.016	169.81	339.53	33.82	77.409	200.98	1575.1	-4.8643	265.93	831.73	-331.71	241.93	639.03	214.02	150.96	26.821	117.23	260.72	719.26	230.03	254.88	271.51	161.01	384.48	32.695	84.914	205.84	65.595	160.26	319.95	970.89	-145.41	59.773	985.21	73.753	59.667	987.27	6.2691	254.43	181.36	102.5	271.2	875.7	-274.36	280.85	350.61	94.92	261.44	265.69	99.824	221.85	71.619	73.738	21.822	172.26	-75.436	117.08	1042.1	264.55	159.59	1053.8	345.92	83.342	1090.9	27.196	247.43	825.03	306.22	-63.281	188.25	-90.175	148.02	1054.9	-158.15
699	3.495	9	2014	4	359.32	1576.3	16.909	363.95	1570.5	114.58	224.56	1367.2	232.56	199.36	1219.7	314.76	257.33	765.94	350.31	154.16	1098.8	-256.35	233.22	927.68	348.58	324.36	959.65	192.18	224.2	1381.5	-127.52	265.92	501.75	-189.22	220.17	820.03	373.24	207.48	1239.3	-213.48	289.48	574.06	-199.08	238.89	337.93	-117.47	85.37	60.734	-118.54	299.22	637.77	189.34	43.592	80.325	-190.19	112.18	222.2	-114.47	172.61	283.3	-115.44	114.82	42.054	-136.02	152	304.6	-169.08	335.01	669.08	-186.53	281.04	660.85	-213.16	298.62	1348.1	53.073	234.02	460.14	180.25	363.54	1234.9	63.464	-1.4338	189.7	-150.61	194.31	1580.5	131.03	275.25	745.05	-227.03	237.02	553.56	196.5	226.12	987.41	-291.56	88.036	1307	155.39	139.84	1419.4	68.937	220.77	870.91	-329.32	63.557	989.79	-60.844	328.28	28.02	169.79	339.55	33.787	77.375	205.84	1575.3	-4.5243	266.36	831	-332.36	244.65	638.9	214.29	150.98	26.812	117.16	263.75	719.03	230.3	255.67	271.36	161.06	384.6	32.662	85	205.85	65.616	160.2	323.55	969.71	-145.29	63.879	985.76	74.143	63.718	987.77	6.6497	254.94	181.24	102.52	272.4	874.73	-274.92	281.95	350.42	94.989	262.26	265.55	99.889	221.91	71.593	73.639	33.682	170.24	-75.852	122.6	1042.1	265.51	165.4	1054.1	346.73	87.69	1091.3	27.636	253.6	825.5	307.25	-52.013	184.47	-90.511	151.57	1055.1	-157.99
700	3.5	9	2014	4	364.21	1576.3	17.116	368.89	1570.5	114.78	229.87	1367.3	232.76	204.86	1219.8	315.05	263.86	766.5	351.49	157.63	1099	-255.99	239.34	928.14	349.39	328.2	958.73	192.38	229	1381.3	-127.32	273.48	502.61	-189.13	226.61	820.56	374.37	211.77	1239.2	-213.18	296.07	575.03	-199.24	248.74	338.56	-117.99	99.957	60.18	-119.62	301.87	637.32	189.51	57.9	79.373	-191.19	123.59	221.25	-115.14	183.39	283.02	-116.12	129.84	41.977	-137.15	162	304.47	-169.37	340.96	670.45	-186.99	286.94	661.79	-213.35	303.34	1348	53.275	235.72	460.02	180.32	368.26	1234.3	63.155	10.283	187.2	-150.9	199.28	1580.7	131.34	280.49	745.95	-227.21	239.3	553.42	196.63	228.38	986.92	-291.66	92.856	1307.4	156.06	144.64	1419.7	69.182	221.58	870.53	-329.56	67.577	990.24	-60.516	328.26	28.023	169.77	339.57	33.755	77.339	210.71	1575.4	-4.2237	266.78	830.27	-333	247.34	638.76	214.56	151	26.803	117.09	266.74	718.78	230.58	256.49	271.2	161.12	384.72	32.619	85.091	205.86	65.636	160.14	327.24	968.59	-145.12	67.959	986.3	74.485	67.768	988.27	6.9844	255.46	181.11	102.55	273.57	873.75	-275.48	283.1	350.21	95.062	263.11	265.41	99.952	221.97	71.569	73.541	45.74	168.03	-76.244	128.13	1042.1	266.44	171.22	1054.3	347.51	92.027	1091.7	28.049	259.79	825.94	308.27	-40.497	180.42	-90.886	155.12	1055.3	-157.81
